<svg width="124" height="142" viewBox="0 0 124 142" fill="none" xmlns="http://www.w3.org/2000/svg">
<mask id="mask0_63_2" style="mask-type:luminance" maskUnits="userSpaceOnUse" x="0" y="24" width="30" height="46">
<path d="M0.382996 24.064H29.424V70H0.382996V24.064Z" fill="white"/>
</mask>
<g mask="url(#mask0_63_2)">
<path d="M25.8167 69.1152C26.2034 69.3689 26.7108 69.3225 27.0449 69.0038L28.7063 67.3982C28.6568 67.3332 28.6011 67.2744 28.5547 67.2094C23.6542 60.3661 12.6868 43.2607 10.7687 25.2365C10.6883 24.4817 9.84985 24.1042 9.22182 24.5281C3.89747 28.1199 0.38916 34.1991 0.38916 41.1044V51.75C0.38916 52.081 0.553129 52.3904 0.831566 52.5729L25.8167 69.1152Z" fill="#A6D98F"/>
</g>
<mask id="mask1_63_2" style="mask-type:luminance" maskUnits="userSpaceOnUse" x="93" y="62" width="31" height="50">
<path d="M93.576 62.872H123.935V111.184H93.576V62.872Z" fill="white"/>
</mask>
<g mask="url(#mask1_63_2)">
<path d="M122.478 63.9177L93.907 91.5047C93.4522 91.9409 93.5203 92.6834 94.0462 93.033L120.773 110.766C121.265 111.091 121.949 110.924 122.206 110.392C123.449 107.787 124.145 104.873 124.145 101.794V64.6262C124.145 63.7568 123.103 63.3144 122.478 63.9177Z" fill="#ACDE50"/>
</g>
<mask id="mask2_63_2" style="mask-type:luminance" maskUnits="userSpaceOnUse" x="48" y="20" width="76" height="67">
<path d="M48.432 20.896H123.935V86.632H48.432V20.896Z" fill="white"/>
</mask>
<g mask="url(#mask2_63_2)">
<path d="M104.154 21.1126H91.7136C91.4599 21.1126 91.2155 21.2116 91.0298 21.391L49.159 61.817C48.7073 62.2533 48.7754 62.9958 49.2983 63.3453L83.6698 86.1494C84.0565 86.4062 84.567 86.3598 84.898 86.038L104.15 67.4477C104.605 67.0114 104.537 66.2659 104.011 65.9193L86.9616 54.6303C86.4356 54.2838 86.3676 53.5382 86.8223 53.1019L92.8768 47.2578C93.2078 46.9361 93.7183 46.8897 94.1019 47.1434L111.882 58.9151C112.265 59.1688 112.776 59.1224 113.11 58.8037L123.845 48.4366C124.037 48.2509 124.145 47.9942 124.145 47.7281V41.1044C124.145 30.0628 115.195 21.1126 104.154 21.1126Z" fill="#F5F5F5"/>
</g>
<path d="M59.0065 38.1437L74.896 22.8048C75.5302 22.1892 75.097 21.1126 74.2122 21.1126H61.1102C60.5874 21.1126 60.1666 21.524 60.1419 22.0469C59.9129 27.1887 58.8765 32.2903 57.3915 37.1506C57.0945 38.1251 58.2763 38.8521 59.0065 38.1437Z" fill="#ACDE50"/>
<mask id="mask3_63_2" style="mask-type:luminance" maskUnits="userSpaceOnUse" x="0" y="65" width="20" height="29">
<path d="M0.382996 65.248H19.128V93.76H0.382996V65.248Z" fill="white"/>
</mask>
<g mask="url(#mask3_63_2)">
<path d="M18.0885 77.6478C18.5433 77.2115 18.4721 76.4659 17.9493 76.1194L1.91747 65.5079C1.2616 65.0748 0.38916 65.5419 0.38916 66.3277V92.4173C0.38916 93.2867 1.43175 93.7291 2.05669 93.1258L18.0885 77.6478Z" fill="#F5F5F5"/>
</g>
<path d="M72.7829 91.152C72.3993 90.8952 71.8888 90.9447 71.5547 91.2634L41.6938 120.094C41.0565 120.71 41.4927 121.786 42.3775 121.786H69.0951C69.7479 121.786 70.3667 122.071 70.7874 122.566L86.5656 141.076C87.9051 142.651 90.4822 141.701 90.4822 139.634V124.011C90.4822 122.782 91.4784 121.786 92.7066 121.786H104.154C107.359 121.786 110.375 121.019 113.057 119.673C113.744 119.33 113.825 118.383 113.184 117.956L72.7829 91.152Z" fill="#A6D98F"/>
<path d="M62.4095 84.2684L41.4277 70.3496C41.0441 70.0959 40.5336 70.1423 40.2026 70.461L1.82772 107.509C1.54929 107.781 1.4441 108.195 1.57404 108.564C4.34913 116.27 11.7184 121.786 20.3809 121.786H24.8762C25.1298 121.786 25.3743 121.687 25.5599 121.511L62.5488 85.7967C63.0004 85.3605 62.9324 84.6149 62.4095 84.2684Z" fill="#ACDE50"/>
<mask id="mask4_63_2" style="mask-type:luminance" maskUnits="userSpaceOnUse" x="15" y="0" width="40" height="66">
<path d="M15.96 0.700001H54.768V65.248H15.96V0.700001Z" fill="white"/>
</mask>
<g mask="url(#mask4_63_2)">
<path d="M35.3361 27.3743C31.2307 27.3743 27.9019 24.0454 27.9019 19.94C27.9019 15.8346 31.2307 12.5057 35.3361 12.5057C39.4415 12.5057 42.7704 15.8346 42.7704 19.94C42.7704 24.0454 39.4415 27.3743 35.3361 27.3743ZM16.2353 21.0136C16.7025 38.9418 28.3845 57.0588 33.2448 63.8465C34.2719 65.282 36.3911 65.2944 37.4182 63.862C42.3713 56.9444 54.4493 38.2055 54.4493 19.9122C54.4493 9.35631 45.8951 0.799 35.3392 0.795906C24.1801 0.795906 15.9569 10.3618 16.2353 21.0136Z" fill="#FF3131"/>
</g>
</svg>
